<svg xmlns="http://www.w3.org/2000/svg" viewBox="0 0 19.95 17.46"><defs><style>.cls-1{fill:#00b900;}</style></defs><title>logo_sm</title><g id="Layer_2" data-name="Layer 2"><g id="Layer_1-2" data-name="Layer 1"><path class="cls-1" d="M14.75,2.49a2.53,2.53,0,0,1,1.65.59,3,3,0,0,1,1.06,2.19,3.11,3.11,0,0,1-.85,2.3L10,14.42,3.34,7.57a3.11,3.11,0,0,1-.85-2.3A3,3,0,0,1,3.55,3.09a2.5,2.5,0,0,1,1.66-.6,3.15,3.15,0,0,1,2.22,1l.76.8L10,6.08l1.78-1.83.77-.8a3.13,3.13,0,0,1,2.22-1m0-2.49a5.64,5.64,0,0,0-4,1.72L10,2.51l-.77-.79A5.61,5.61,0,0,0,5.21,0,5,5,0,0,0,1.94,1.19,5.6,5.6,0,0,0,1.55,9.3l7.54,7.78a1.22,1.22,0,0,0,1.77,0L18.4,9.3A5.61,5.61,0,0,0,18,1.19,5,5,0,0,0,14.75,0Z"/></g></g></svg>