<svg xmlns="http://www.w3.org/2000/svg" viewBox="0 0 66.71 27.1"><defs><style>.cls-1{font-size:21.29px;fill:#2c3042;font-family:Inter-Bold, Inter;font-weight:700;}.cls-2{fill:#00b900;}</style></defs><title>logo_md</title><g id="Layer_2" data-name="Layer 2"><g id="Layer_1-2" data-name="Layer 1"><text class="cls-1" transform="translate(24.26 18.39)">KPR</text><path class="cls-2" d="M14.75,4a2.55,2.55,0,0,1,1.65.6,3,3,0,0,1,1.06,2.19,3.11,3.11,0,0,1-.85,2.3L10,15.93,3.34,9.08a3.11,3.11,0,0,1-.85-2.3A3,3,0,0,1,3.55,4.59,2.55,2.55,0,0,1,5.21,4,3.16,3.16,0,0,1,7.43,5l.76.79L10,7.59l1.78-1.84L12.53,5a3.14,3.14,0,0,1,2.22-1m0-2.48a5.64,5.64,0,0,0-4,1.72L10,4l-.77-.79a5.61,5.61,0,0,0-4-1.72A5,5,0,0,0,1.94,2.7a5.59,5.59,0,0,0-.39,8.1l7.54,7.79a1.22,1.22,0,0,0,1.77,0L18.4,10.8A5.6,5.6,0,0,0,18,2.7a5,5,0,0,0-3.27-1.19Z"/></g></g></svg>