<svg xmlns="http://www.w3.org/2000/svg" viewBox="0 0 154.97 79.43"><defs><style>.cls-1{font-size:41.81px;fill:#2c3042;font-family:Inter-Bold, Inter;font-weight:700;}.cls-2{font-size:32.06px;fill:#7a7e93;font-family:Inter-Regular, Inter;}.cls-3{fill:none;}.cls-4{fill:#00b900;}</style></defs><title>logo_lg</title><g id="Layer_2" data-name="Layer 2"><g id="Layer_1-2" data-name="Layer 1"><text class="cls-1" transform="translate(53.18 36.11)">KPR</text><text class="cls-2" transform="translate(53.18 67.09)">fitness</text><path class="cls-3" d="M41.47,19.91a8.78,8.78,0,0,0-6.24,2.72l-2.16,2.23-5,5.17-5-5.17-2.16-2.22a8.75,8.75,0,0,0-6.24-2.73A7.14,7.14,0,0,0,10,21.6a8.53,8.53,0,0,0-3,6.15A8.64,8.64,0,0,0,9.39,34.2L28.05,53.47,43.8,37.21V20.29A7.36,7.36,0,0,0,41.47,19.91Z"/><path class="cls-4" d="M43.8,5.83v7.28a15.15,15.15,0,0,0-2.33-.19,15.77,15.77,0,0,0-11.26,4.85L28.05,20,25.9,17.77a15.77,15.77,0,0,0-11.26-4.85,14.09,14.09,0,0,0-9.19,3.36A15.73,15.73,0,0,0,4.36,39.06L25.57,61a3.43,3.43,0,0,0,5,0L43.8,47.26V67.09h1.28V5.83Zm0,31.38L28.05,53.47,9.39,34.2A8.64,8.64,0,0,1,7,27.75a8.49,8.49,0,0,1,3-6.15,7.14,7.14,0,0,1,4.66-1.69,8.75,8.75,0,0,1,6.24,2.73L23,24.86l5,5.17,5-5.17,2.16-2.23a8.78,8.78,0,0,1,6.24-2.72,7.36,7.36,0,0,1,2.33.38Z"/></g></g></svg>